<?xml version="1.0" encoding="utf-8"?>
<!-- Generator: Adobe Illustrator 17.1.0, SVG Export Plug-In . SVG Version: 6.00 Build 0)  -->
<!DOCTYPE svg PUBLIC "-//W3C//DTD SVG 1.1//EN" "http://www.w3.org/Graphics/SVG/1.1/DTD/svg11.dtd">
<svg version="1.1" xmlns="http://www.w3.org/2000/svg" xmlns:xlink="http://www.w3.org/1999/xlink" x="0px" y="0px"
	 viewBox="0 0 1266.1 408" enable-background="new 0 0 1266.1 408" xml:space="preserve">
<g id="Layer_3" display="none">
	<rect x="0" y="0" display="inline" fill="#312E3F" width="1266.1" height="408"/>
</g>
<g id="Layer_2">
	<g>
		<path fill="#FFFFFF" d="M230.3,297.5c-19.8,9.6-45.6,14.4-77.5,14.4c-41.6,0-74.3-12.2-98.2-36.7c-23.8-24.5-35.7-57.1-35.7-97.8
			C18.8,134,32.2,98.8,59,71.8c26.8-27,61.6-40.5,104.3-40.5c26.5,0,48.8,3.3,67,10v58.8c-18.2-10.8-38.8-16.3-62-16.3
			c-25.5,0-46,8-61.7,24C91,124,83.1,145.7,83.1,173c0,26.2,7.4,47.1,22.1,62.7c14.8,15.6,34.6,23.4,59.6,23.4
			c23.8,0,45.6-5.8,65.4-17.4V297.5z"/>
		<path fill="#FFFFFF" d="M424.9,307.1h-56.6v-27.8h-0.8c-13,21.7-32.2,32.5-57.7,32.5c-18.8,0-33.6-5.3-44.4-16
			c-10.8-10.7-16.2-24.9-16.2-42.6c0-37.6,22.3-59.3,66.8-65.1l52.6-7c0-21.2-11.5-31.8-34.4-31.8c-23.1,0-45,6.9-65.8,20.6v-45
			c8.3-4.3,19.7-8.1,34.1-11.3c14.4-3.3,27.6-4.9,39.4-4.9c55.2,0,82.8,27.6,82.8,82.7V307.1z M368.7,228.5v-13.1l-35.2,4.5
			c-19.4,2.5-29.1,11.3-29.1,26.3c0,6.8,2.4,12.4,7.1,16.7c4.7,4.4,11.1,6.5,19.2,6.5c11.2,0,20.4-3.9,27.4-11.6
			C365.2,250.1,368.7,240.3,368.7,228.5z"/>
		<path fill="#FFFFFF" d="M524.9,307.1h-59.8V20.4h59.8V307.1z"/>
		<path fill="#FFFFFF" d="M754.7,396.2H695V280.5h-0.8c-13.5,20.9-33.4,31.4-59.6,31.4c-24.3,0-43.9-8.5-58.7-25.4
			c-14.8-17-22.2-40.8-22.2-71.4c0-32.3,8.1-58.1,24.4-77.4s37.4-28.9,63.5-28.9c23.7,0,41.2,9.1,52.6,27.2h0.8v-22.5h59.8V396.2z
			 M696.1,214.6v-15.5c0-12.6-3.7-23.2-11-31.8c-7.3-8.6-16.7-12.9-28.2-12.9c-13.2,0-23.6,5.2-31.2,15.6
			c-7.6,10.4-11.3,24.8-11.3,43.2c0,16.5,3.7,29.4,11.1,38.8c7.4,9.3,17,14,28.8,14c12.6,0,22.7-4.7,30.4-14.2
			C692.3,242.4,696.1,230,696.1,214.6z"/>
	</g>
	<g>
		<g>
			<rect x="888.3" y="31.8" fill="#FFFFFF" width="93" height="286.5"/>
			<rect x="888.3" y="297.3" fill="#FFFFFF" width="93" height="21"/>
		</g>
		<g>
			<rect x="1024.3" y="114.3" fill="#FFFFFF" width="93" height="204"/>
			<rect x="1024.3" y="297.3" fill="#FFFFFF" width="93" height="21"/>
		</g>
		<g>
			<rect x="1158.3" y="220.8" fill="#FFFFFF" width="93" height="97.5"/>
			<rect x="1158.3" y="297.3" fill="#FFFFFF" width="93" height="21"/>
		</g>
	</g>
</g>
</svg>
