<?xml version="1.0" encoding="utf-8"?>
<!-- Generator: Adobe Illustrator 17.1.0, SVG Export Plug-In . SVG Version: 6.00 Build 0)  -->
<!DOCTYPE svg PUBLIC "-//W3C//DTD SVG 1.1//EN" "http://www.w3.org/Graphics/SVG/1.1/DTD/svg11.dtd">
<svg version="1.1" id="Layer_1" xmlns="http://www.w3.org/2000/svg" xmlns:xlink="http://www.w3.org/1999/xlink" x="0px" y="0px"
	 width="2000" height="648.1" viewBox="0 424.8 2000 648.1" enable-background="new 0 424.8 2000 648.1" xml:space="preserve">
<g id="Layer_2">
	<g>
		<path fill="#231F20" d="M363.8,897.7c-31.3,15.2-72,22.7-122.4,22.7c-65.7,0-117.4-19.3-155.1-58C48.7,823.8,29.9,772.3,29.9,708
			c-0.2-68.6,21-124.2,63.3-166.8s97.3-64,164.8-64c41.9,0,77.1,5.2,105.8,15.8v92.9c-28.7-17.1-61.3-25.7-97.9-25.7
			c-40.3,0-72.7,12.6-97.5,37.9c-24.6,25.6-37.1,59.9-37.1,103c0,41.4,11.7,74.4,34.9,99c23.4,24.6,54.7,37,94.1,37
			c37.6,0,72-9.2,103.3-27.5v88.1H363.8z"/>
		<path fill="#231F20" d="M671.2,912.9h-89.4v-43.9h-1.3c-20.5,34.3-50.9,51.3-91.1,51.3c-29.7,0-53.1-8.4-70.1-25.3
			c-17.1-16.9-25.6-39.3-25.6-67.3c0-59.4,35.2-93.7,105.5-102.8l83.1-11.1c0-33.5-18.2-50.2-54.3-50.2
			c-36.5,0-71.1,10.9-103.9,32.5V625c13.1-6.8,31.1-12.8,53.9-17.9c22.7-5.2,43.6-7.7,62.2-7.7c87.2,0,130.8,43.6,130.8,130.6v182.8
			H671.2z M582.4,788.7V768l-55.6,7.1c-30.6,3.9-46,17.9-46,41.5c0,10.7,3.8,19.6,11.2,26.4c7.4,7,17.5,10.3,30.3,10.3
			c17.7,0,32.2-6.2,43.3-18.3C576.9,822.8,582.4,807.3,582.4,788.7z"/>
		<path fill="#231F20" d="M829.2,912.9h-94.5V460h94.5V912.9z"/>
		<path fill="#231F20" d="M1192.2,1053.6h-94.3V870.8h-1.3c-21.3,33-52.8,49.6-94.1,49.6c-38.4,0-69.3-13.4-92.7-40.1
			c-23.4-26.9-35.1-64.4-35.1-112.8c0-51,12.8-91.8,38.5-122.3c25.7-30.5,59.1-45.7,100.3-45.7c37.4,0,65.1,14.4,83.1,43h1.3V607
			h94.5v446.6H1192.2z M1099.6,766.7v-24.5c0-19.9-5.8-36.6-17.4-50.2c-11.5-13.6-26.4-20.4-44.5-20.4c-20.9,0-37.3,8.2-49.3,24.6
			c-12,16.4-17.9,39.2-17.9,68.2c0,26.1,5.8,46.4,17.5,61.3c11.7,14.7,26.9,22.1,45.5,22.1c19.9,0,35.9-7.4,48-22.4
			C1093.6,810.7,1099.6,791.1,1099.6,766.7z"/>
	</g>
	<g>
		<g>
			<rect x="1403.2" y="478" fill="#E95B5A" width="146.9" height="452.6"/>
			<rect x="1403.2" y="897.4" fill="#AD4147" width="146.9" height="33.2"/>
		</g>
		<g>
			<rect x="1618" y="608.3" fill="#CB5C5B" width="146.9" height="322.2"/>
			<rect x="1618" y="897.4" fill="#9A474D" width="146.9" height="33.2"/>
		</g>
		<g>
			<rect x="1829.7" y="776.5" fill="#B15B5E" width="146.9" height="154"/>
			<rect x="1829.7" y="897.4" fill="#89464D" width="146.9" height="33.2"/>
		</g>
	</g>
</g>
</svg>
